Coordinates
version=1
nRows=17
nColumns=24
inDegrees=yes

Units are S.I. units (second, meters, Newtons, ...)
Angles are in degrees.

endheader
time	pelvis_tilt	pelvis_list	pelvis_rotation	pelvis_tx	pelvis_ty	pelvis_tz	hip_flexion_r	hip_adduction_r	hip_rotation_r	knee_angle_r	ankle_angle_r	subtalar_angle_r	mtp_angle_r	hip_flexion_l	hip_adduction_l	hip_rotation_l	knee_angle_l	ankle_angle_l	subtalar_angle_l	mtp_angle_l	lumbar_extension	lumbar_bending	lumbar_rotation
      0.43000000	     -5.64111664	      5.85193914	     -2.43284097	     -0.80214036	      1.02265527	      0.25341242	     34.52999874	     -2.59938148	     -0.03202975	    -10.82866608	      4.84439954	     -1.61896186	     10.58097913	    -11.64902327	      8.09052987	      0.33811649	     -7.71216757	     19.94090737	     10.39525234	      4.92042045	    -11.42864875	     -6.48945474	     -3.43081165
      0.43416667	     -5.70669498	      5.76391325	     -2.34895381	     -0.79565654	      1.02189506	      0.25362440	     34.63647370	     -2.47791711	      0.15275977	    -11.53860740	      4.46488458	     -2.12190789	     10.56555754	    -11.61568008	      7.94791518	      0.21364224	     -8.44687638	     20.02099302	     10.70808303	      4.99128624	    -11.28765175	     -6.26881640	     -3.41268093
      0.43833333	     -5.74861508	      5.65822921	     -2.25748964	     -0.78916278	      1.02122853	      0.25383577	     34.71283422	     -2.34874915	      0.32099918	    -12.27037210	      4.05867959	     -2.62231012	     10.54952585	    -11.57564884	      7.77631236	      0.00919027	     -9.24781835	     20.12937731	     11.16255466	      5.11181072	    -11.18259827	     -6.02276427	     -3.41183797
      0.44250000	     -5.79525624	      5.55061582	     -2.16705023	     -0.78263952	      1.02061044	      0.25407062	     34.79900875	     -2.21928589	      0.47825990	    -13.03631831	      3.65039282	     -3.09499033	     10.53053433	    -11.50930832	      7.59589042	     -0.22808601	    -10.09457607	     20.18663513	     11.63769505	      5.28203675	    -11.07447243	     -5.77532548	     -3.39971404
      0.44666667	     -5.80958278	      5.43565946	     -2.07055465	     -0.77613418	      1.02010691	      0.25430979	     34.84992334	     -2.09177196	      0.62957854	    -13.82044364	      3.24580232	     -3.54187924	     10.50102681	    -11.43930430	      7.39691455	     -0.52243758	    -11.01354543	     20.22114619	     12.20181610	      5.56556143	    -11.02916943	     -5.52662148	     -3.38353190
      0.45083333	     -5.86333911	      5.31519252	     -1.98262919	     -0.76954823	      1.01958618	      0.25456694	     34.95275479	     -1.95535582	      0.75646260	    -14.64702479	      2.83082852	     -3.99083527	     10.46656964	    -11.33572128	      7.19435532	     -0.76352101	    -11.91761400	     20.19785588	     12.64470867	      5.82665660	    -10.89015667	     -5.25873518	     -3.37469000
      0.45500000	     -5.85124006	      5.15818641	     -1.87603936	     -0.76299062	      1.01925493	      0.25479978	     34.97379631	     -1.80877537	      0.81222369	    -15.47101333	      2.45631222	     -4.31308517	     10.36007406	    -11.24243945	      6.93184639	     -1.12032126	    -12.94519949	     20.19259557	     13.28315862	      6.70030878	    -10.87420525	     -4.94559856	     -3.31330702
      0.45916667	     -5.89382411	      5.05512606	     -1.77801214	     -0.75643757	      1.01888092	      0.25510520	     35.06717880	     -1.69505526	      0.96734089	    -16.32188176	      2.06613238	     -4.78387677	     10.29329302	    -11.08447259	      6.72796116	     -1.38752566	    -13.96527411	     20.01847407	     13.76046539	      7.11005383	    -10.77638762	     -4.71836160	     -3.34539565
      0.46333333	     -5.87892573	      4.92519151	     -1.68905173	     -0.74986539	      1.01864111	      0.25541176	     35.11269319	     -1.56908441	      1.01914242	    -17.21631380	      1.73537788	     -5.11808652	     10.19887951	    -10.96223246	      6.48484830	     -1.73944815	    -15.03314442	     19.87399021	     14.36489609	      7.66107538	    -10.74427990	     -4.45550137	     -3.31993495
      0.46750000	     -5.94457625	      4.80243025	     -1.60159459	     -0.74324306	      1.01833275	      0.25573555	     35.24002836	     -1.44377087	      1.09850188	    -18.11337105	      1.46086834	     -5.42860993	     10.12853444	    -10.73179344	      6.24956247	     -2.03301901	    -16.14882381	     19.64226068	     14.76662741	      8.02856174	    -10.58588434	     -4.18433845	     -3.31715508
      0.47166667	     -5.90984955	      4.65584598	     -1.49604779	     -0.73667353	      1.01827987	      0.25604646	     35.24227459	     -1.31839647	      1.12151173	    -18.98320421	      1.20935508	     -5.69868209	      9.33225452	    -10.56860811	      5.97000575	     -2.36027663	    -17.31882177	     19.25674363	     15.26774679	     12.15650886	    -10.59527539	     -3.91371928	     -3.21429521
      0.47583333	     -5.90460758	      4.52210846	     -1.39699126	     -0.73008500	      1.01819794	      0.25638616	     35.29077642	     -1.20656408	      1.10908684	    -19.88989159	      1.05838879	     -5.87351268	      9.31285667	    -10.34238277	      5.69604821	     -2.70935215	    -18.55477150	     18.94428073	     15.78971949	     12.24263122	    -10.54630262	     -3.63107290	     -3.28064850
      0.48000000	     -5.87587886	      4.37318491	     -1.29716113	     -0.72350365	      1.01822167	      0.25674984	     35.29745241	     -1.08294005	      1.08930609	    -20.76850231	      0.92677548	     -6.05923349	      9.27670188	    -10.10680847	      5.38983564	     -3.09235050	    -19.84962630	     18.53742603	     16.34314181	     12.39785495	    -10.53471601	     -3.34927111	     -3.25153191
      0.48416667	     -5.83391783	      4.22401684	     -1.21121955	     -0.71694486	      1.01830614	      0.25715270	     35.28401368	     -0.95507368	      1.05619068	    -21.63311624	      0.85563365	     -6.20004233	      9.22691187	     -9.84755458	      5.07526161	     -3.48795997	    -21.20886489	     18.08949118	     16.88957622	     12.61667892	    -10.53717719	     -3.07004453	     -3.23097883
      0.48833333	     -5.77970331	      4.07474031	     -1.12433419	     -0.71039801	      1.01847588	      0.25758595	     35.23936233	     -0.82611442	      1.02542117	    -22.46424678	      0.80992803	     -6.38553118	      8.46005979	     -9.57876334	      4.75052149	     -3.85857053	    -22.58334545	     17.46333025	     17.34970337	     15.95235195	    -10.56020427	     -2.80170114	     -3.16583739
      0.49250000	     -5.71766901	      3.91467195	     -1.03841199	     -0.70385611	      1.01869042	      0.25800738	     35.17910344	     -0.70040876	      0.91959852	    -23.28685815	      0.88856860	     -6.36941168	      8.45100575	     -9.27920504	      4.40312914	     -4.24743073	    -24.03641049	     16.86962971	     17.82187766	     16.02198972	    -10.58928928	     -2.50266990	     -3.16631250
      0.49666667	     -5.64511619	      3.75312547	     -0.95828444	     -0.69735078	      1.01896986	      0.25847381	     35.08359882	     -0.56599138	      0.82996061	    -24.05661148	      0.96883559	     -6.41775849	      8.42994947	     -8.95682789	      4.04053521	     -4.64178664	    -25.53516988	     16.19334394	     18.29013663	     16.13980520	    -10.63413499	     -2.21587885	     -3.13567710
